<mxfile host="app.diagrams.net" agent="Mozilla/5.0 (Windows NT 10.0; Win64; x64) AppleWebKit/537.36 (KHTML, like Gecko) Chrome/135.0.0.0 Safari/537.36 Edg/135.0.0.0" version="26.2.14">
  <diagram name="第 1 页" id="nUI3xTx-FmzWRsHUsV3Z">
    <mxGraphModel dx="1205" dy="773" grid="0" gridSize="10" guides="1" tooltips="1" connect="1" arrows="1" fold="1" page="1" pageScale="1" pageWidth="1390" pageHeight="980" background="light-dark(#FFFFFF,#FFFFFF)" math="0" shadow="0">
      <root>
        <mxCell id="0" />
        <mxCell id="1" parent="0" />
        <mxCell id="7h1PMOQPWC_LRyOeSCcQ-12" style="edgeStyle=orthogonalEdgeStyle;rounded=0;orthogonalLoop=1;jettySize=auto;html=1;exitX=0.5;exitY=1;exitDx=0;exitDy=0;entryX=0.5;entryY=0;entryDx=0;entryDy=0;labelBackgroundColor=none;strokeColor=#23445D;fontColor=default;fontStyle=1;fontSize=14;" edge="1" parent="1" source="7h1PMOQPWC_LRyOeSCcQ-1" target="7h1PMOQPWC_LRyOeSCcQ-4">
          <mxGeometry relative="1" as="geometry" />
        </mxCell>
        <mxCell id="7h1PMOQPWC_LRyOeSCcQ-1" value="开始验证&lt;div&gt;verify_answer()&lt;/div&gt;" style="rounded=0;whiteSpace=wrap;html=1;labelBackgroundColor=none;fillColor=#182E3E;strokeColor=#FFFFFF;fontColor=#FFFFFF;fontStyle=1;fontSize=14;" vertex="1" parent="1">
          <mxGeometry x="480" y="30" width="140" height="60" as="geometry" />
        </mxCell>
        <mxCell id="7h1PMOQPWC_LRyOeSCcQ-13" style="edgeStyle=orthogonalEdgeStyle;rounded=0;orthogonalLoop=1;jettySize=auto;html=1;exitX=0.5;exitY=1;exitDx=0;exitDy=0;entryX=0.5;entryY=0;entryDx=0;entryDy=0;labelBackgroundColor=none;strokeColor=#23445D;fontColor=default;fontStyle=1;fontSize=14;" edge="1" parent="1" source="7h1PMOQPWC_LRyOeSCcQ-4" target="7h1PMOQPWC_LRyOeSCcQ-5">
          <mxGeometry relative="1" as="geometry" />
        </mxCell>
        <mxCell id="7h1PMOQPWC_LRyOeSCcQ-4" value="分析问题文本" style="rounded=0;whiteSpace=wrap;html=1;labelBackgroundColor=none;fillColor=#182E3E;strokeColor=#FFFFFF;fontColor=#FFFFFF;fontStyle=1;fontSize=14;" vertex="1" parent="1">
          <mxGeometry x="490" y="120" width="120" height="40" as="geometry" />
        </mxCell>
        <mxCell id="7h1PMOQPWC_LRyOeSCcQ-14" style="edgeStyle=orthogonalEdgeStyle;rounded=0;orthogonalLoop=1;jettySize=auto;html=1;exitX=0.5;exitY=1;exitDx=0;exitDy=0;entryX=0.5;entryY=0;entryDx=0;entryDy=0;labelBackgroundColor=none;strokeColor=#23445D;fontColor=default;fontStyle=1;fontSize=14;" edge="1" parent="1" source="7h1PMOQPWC_LRyOeSCcQ-5" target="7h1PMOQPWC_LRyOeSCcQ-6">
          <mxGeometry relative="1" as="geometry" />
        </mxCell>
        <mxCell id="7h1PMOQPWC_LRyOeSCcQ-16" style="edgeStyle=orthogonalEdgeStyle;rounded=0;orthogonalLoop=1;jettySize=auto;html=1;exitX=0.5;exitY=1;exitDx=0;exitDy=0;entryX=0.5;entryY=0;entryDx=0;entryDy=0;labelBackgroundColor=none;strokeColor=#23445D;fontColor=default;fontStyle=1;fontSize=14;" edge="1" parent="1" source="7h1PMOQPWC_LRyOeSCcQ-5" target="7h1PMOQPWC_LRyOeSCcQ-8">
          <mxGeometry relative="1" as="geometry" />
        </mxCell>
        <mxCell id="7h1PMOQPWC_LRyOeSCcQ-17" style="edgeStyle=orthogonalEdgeStyle;rounded=0;orthogonalLoop=1;jettySize=auto;html=1;exitX=0.5;exitY=1;exitDx=0;exitDy=0;labelBackgroundColor=none;strokeColor=#23445D;fontColor=default;fontStyle=1;fontSize=14;" edge="1" parent="1" source="7h1PMOQPWC_LRyOeSCcQ-5" target="7h1PMOQPWC_LRyOeSCcQ-10">
          <mxGeometry relative="1" as="geometry" />
        </mxCell>
        <mxCell id="7h1PMOQPWC_LRyOeSCcQ-5" value="生成答案" style="rounded=0;whiteSpace=wrap;html=1;labelBackgroundColor=none;fillColor=#182E3E;strokeColor=#FFFFFF;fontColor=#FFFFFF;fontStyle=1;fontSize=14;" vertex="1" parent="1">
          <mxGeometry x="500" y="190" width="100" height="40" as="geometry" />
        </mxCell>
        <mxCell id="7h1PMOQPWC_LRyOeSCcQ-15" style="edgeStyle=orthogonalEdgeStyle;rounded=0;orthogonalLoop=1;jettySize=auto;html=1;exitX=0.5;exitY=1;exitDx=0;exitDy=0;entryX=0.5;entryY=0;entryDx=0;entryDy=0;labelBackgroundColor=none;strokeColor=#23445D;fontColor=default;fontStyle=1;fontSize=14;" edge="1" parent="1" source="7h1PMOQPWC_LRyOeSCcQ-6" target="7h1PMOQPWC_LRyOeSCcQ-7">
          <mxGeometry relative="1" as="geometry" />
        </mxCell>
        <mxCell id="7h1PMOQPWC_LRyOeSCcQ-6" value="反向生成问题" style="rounded=0;whiteSpace=wrap;html=1;labelBackgroundColor=none;fillColor=#182E3E;strokeColor=#FFFFFF;fontColor=#FFFFFF;fontStyle=1;fontSize=14;" vertex="1" parent="1">
          <mxGeometry x="340" y="270" width="120" height="40" as="geometry" />
        </mxCell>
        <mxCell id="7h1PMOQPWC_LRyOeSCcQ-20" style="edgeStyle=orthogonalEdgeStyle;rounded=0;orthogonalLoop=1;jettySize=auto;html=1;exitX=0.5;exitY=1;exitDx=0;exitDy=0;entryX=0.5;entryY=0;entryDx=0;entryDy=0;labelBackgroundColor=none;strokeColor=#23445D;fontColor=default;fontStyle=1;fontSize=14;" edge="1" parent="1" source="7h1PMOQPWC_LRyOeSCcQ-7" target="7h1PMOQPWC_LRyOeSCcQ-11">
          <mxGeometry relative="1" as="geometry" />
        </mxCell>
        <mxCell id="7h1PMOQPWC_LRyOeSCcQ-7" value="计算相似度" style="rounded=0;whiteSpace=wrap;html=1;labelBackgroundColor=none;fillColor=#182E3E;strokeColor=#FFFFFF;fontColor=#FFFFFF;fontStyle=1;fontSize=14;" vertex="1" parent="1">
          <mxGeometry x="340" y="340" width="120" height="40" as="geometry" />
        </mxCell>
        <mxCell id="7h1PMOQPWC_LRyOeSCcQ-19" style="edgeStyle=orthogonalEdgeStyle;rounded=0;orthogonalLoop=1;jettySize=auto;html=1;exitX=0.5;exitY=1;exitDx=0;exitDy=0;labelBackgroundColor=none;strokeColor=#23445D;fontColor=default;fontStyle=1;fontSize=14;" edge="1" parent="1" source="7h1PMOQPWC_LRyOeSCcQ-8">
          <mxGeometry relative="1" as="geometry">
            <mxPoint x="550" y="420" as="targetPoint" />
          </mxGeometry>
        </mxCell>
        <mxCell id="7h1PMOQPWC_LRyOeSCcQ-8" value="检查知识库冲突" style="rounded=0;whiteSpace=wrap;html=1;labelBackgroundColor=none;fillColor=#182E3E;strokeColor=#FFFFFF;fontColor=#FFFFFF;fontStyle=1;fontSize=14;" vertex="1" parent="1">
          <mxGeometry x="490" y="310" width="120" height="40" as="geometry" />
        </mxCell>
        <mxCell id="7h1PMOQPWC_LRyOeSCcQ-21" style="edgeStyle=orthogonalEdgeStyle;rounded=0;orthogonalLoop=1;jettySize=auto;html=1;exitX=0.5;exitY=1;exitDx=0;exitDy=0;labelBackgroundColor=none;strokeColor=#23445D;fontColor=default;fontStyle=1;fontSize=14;" edge="1" parent="1" source="7h1PMOQPWC_LRyOeSCcQ-10" target="7h1PMOQPWC_LRyOeSCcQ-11">
          <mxGeometry relative="1" as="geometry" />
        </mxCell>
        <mxCell id="7h1PMOQPWC_LRyOeSCcQ-10" value="检查答案事实性" style="rounded=0;whiteSpace=wrap;html=1;labelBackgroundColor=none;fillColor=#182E3E;strokeColor=#FFFFFF;fontColor=#FFFFFF;fontStyle=1;fontSize=14;" vertex="1" parent="1">
          <mxGeometry x="640" y="310" width="120" height="40" as="geometry" />
        </mxCell>
        <mxCell id="7h1PMOQPWC_LRyOeSCcQ-28" style="edgeStyle=orthogonalEdgeStyle;rounded=0;orthogonalLoop=1;jettySize=auto;html=1;exitX=0.5;exitY=1;exitDx=0;exitDy=0;entryX=0.5;entryY=0;entryDx=0;entryDy=0;labelBackgroundColor=none;strokeColor=#23445D;fontColor=default;fontStyle=1;fontSize=14;" edge="1" parent="1" source="7h1PMOQPWC_LRyOeSCcQ-11" target="7h1PMOQPWC_LRyOeSCcQ-22">
          <mxGeometry relative="1" as="geometry" />
        </mxCell>
        <mxCell id="7h1PMOQPWC_LRyOeSCcQ-11" value="幻觉检测&lt;div&gt;HallucinationDetector&lt;/div&gt;" style="rounded=0;whiteSpace=wrap;html=1;labelBackgroundColor=none;fillColor=#182E3E;strokeColor=#FFFFFF;fontColor=#FFFFFF;fontStyle=1;fontSize=14;" vertex="1" parent="1">
          <mxGeometry x="470" y="420" width="160" height="60" as="geometry" />
        </mxCell>
        <mxCell id="7h1PMOQPWC_LRyOeSCcQ-29" style="edgeStyle=orthogonalEdgeStyle;rounded=0;orthogonalLoop=1;jettySize=auto;html=1;exitX=0.5;exitY=1;exitDx=0;exitDy=0;entryX=0.5;entryY=0;entryDx=0;entryDy=0;labelBackgroundColor=none;strokeColor=#23445D;fontColor=default;fontStyle=1;fontSize=14;" edge="1" parent="1" source="7h1PMOQPWC_LRyOeSCcQ-22" target="7h1PMOQPWC_LRyOeSCcQ-23">
          <mxGeometry relative="1" as="geometry" />
        </mxCell>
        <mxCell id="7h1PMOQPWC_LRyOeSCcQ-22" value="计算风险评分" style="rhombus;whiteSpace=wrap;html=1;labelBackgroundColor=none;fillColor=#182E3E;strokeColor=#FFFFFF;fontColor=#FFFFFF;fontStyle=1;fontSize=14;" vertex="1" parent="1">
          <mxGeometry x="460" y="500" width="180" height="60" as="geometry" />
        </mxCell>
        <mxCell id="7h1PMOQPWC_LRyOeSCcQ-32" style="edgeStyle=orthogonalEdgeStyle;rounded=0;orthogonalLoop=1;jettySize=auto;html=1;exitX=0;exitY=0.5;exitDx=0;exitDy=0;labelBackgroundColor=none;strokeColor=#23445D;fontColor=default;fontStyle=1;fontSize=14;" edge="1" parent="1" source="7h1PMOQPWC_LRyOeSCcQ-23" target="7h1PMOQPWC_LRyOeSCcQ-25">
          <mxGeometry relative="1" as="geometry" />
        </mxCell>
        <mxCell id="7h1PMOQPWC_LRyOeSCcQ-33" value="是" style="edgeLabel;html=1;align=center;verticalAlign=middle;resizable=0;points=[];labelBackgroundColor=none;fontColor=#FFFFFF;fontStyle=1;fontSize=14;" vertex="1" connectable="0" parent="7h1PMOQPWC_LRyOeSCcQ-32">
          <mxGeometry x="0.1083" y="-2" relative="1" as="geometry">
            <mxPoint as="offset" />
          </mxGeometry>
        </mxCell>
        <mxCell id="7h1PMOQPWC_LRyOeSCcQ-35" style="edgeStyle=orthogonalEdgeStyle;rounded=0;orthogonalLoop=1;jettySize=auto;html=1;exitX=1;exitY=0.5;exitDx=0;exitDy=0;labelBackgroundColor=none;strokeColor=#23445D;fontColor=default;fontStyle=1;fontSize=14;" edge="1" parent="1" source="7h1PMOQPWC_LRyOeSCcQ-23" target="7h1PMOQPWC_LRyOeSCcQ-26">
          <mxGeometry relative="1" as="geometry" />
        </mxCell>
        <mxCell id="7h1PMOQPWC_LRyOeSCcQ-36" value="否" style="edgeLabel;html=1;align=center;verticalAlign=middle;resizable=0;points=[];labelBackgroundColor=none;fontColor=#FFFFFF;fontStyle=1;fontSize=14;" vertex="1" connectable="0" parent="7h1PMOQPWC_LRyOeSCcQ-35">
          <mxGeometry x="0.1083" relative="1" as="geometry">
            <mxPoint as="offset" />
          </mxGeometry>
        </mxCell>
        <mxCell id="7h1PMOQPWC_LRyOeSCcQ-23" value="风险评分&amp;gt;阈值&lt;div&gt;或相似度&amp;lt;临界值？&lt;/div&gt;" style="rhombus;whiteSpace=wrap;html=1;labelBackgroundColor=none;fillColor=#182E3E;strokeColor=#FFFFFF;fontColor=#FFFFFF;fontStyle=1;fontSize=14;" vertex="1" parent="1">
          <mxGeometry x="450" y="580" width="200" height="60" as="geometry" />
        </mxCell>
        <mxCell id="7h1PMOQPWC_LRyOeSCcQ-37" style="edgeStyle=orthogonalEdgeStyle;rounded=0;orthogonalLoop=1;jettySize=auto;html=1;exitX=0.5;exitY=1;exitDx=0;exitDy=0;entryX=0;entryY=0.5;entryDx=0;entryDy=0;labelBackgroundColor=none;strokeColor=#23445D;fontColor=default;fontStyle=1;fontSize=14;" edge="1" parent="1" source="7h1PMOQPWC_LRyOeSCcQ-25" target="7h1PMOQPWC_LRyOeSCcQ-27">
          <mxGeometry relative="1" as="geometry" />
        </mxCell>
        <mxCell id="7h1PMOQPWC_LRyOeSCcQ-25" value="标记为高风险" style="rounded=0;whiteSpace=wrap;html=1;labelBackgroundColor=none;fillColor=#182E3E;strokeColor=#FFFFFF;fontColor=#FFFFFF;fontStyle=1;fontSize=14;" vertex="1" parent="1">
          <mxGeometry x="370" y="660" width="120" height="40" as="geometry" />
        </mxCell>
        <mxCell id="7h1PMOQPWC_LRyOeSCcQ-38" style="edgeStyle=orthogonalEdgeStyle;rounded=0;orthogonalLoop=1;jettySize=auto;html=1;exitX=0.5;exitY=1;exitDx=0;exitDy=0;entryX=1;entryY=0.5;entryDx=0;entryDy=0;labelBackgroundColor=none;strokeColor=#23445D;fontColor=default;fontStyle=1;fontSize=14;" edge="1" parent="1" source="7h1PMOQPWC_LRyOeSCcQ-26" target="7h1PMOQPWC_LRyOeSCcQ-27">
          <mxGeometry relative="1" as="geometry" />
        </mxCell>
        <mxCell id="7h1PMOQPWC_LRyOeSCcQ-26" value="标记为低风险" style="rounded=0;whiteSpace=wrap;html=1;labelBackgroundColor=none;fillColor=#182E3E;strokeColor=#FFFFFF;fontColor=#FFFFFF;fontStyle=1;fontSize=14;" vertex="1" parent="1">
          <mxGeometry x="610" y="660" width="120" height="40" as="geometry" />
        </mxCell>
        <mxCell id="7h1PMOQPWC_LRyOeSCcQ-27" value="保存验证结果" style="rounded=0;whiteSpace=wrap;html=1;labelBackgroundColor=none;fillColor=#182E3E;strokeColor=#FFFFFF;fontColor=#FFFFFF;fontStyle=1;fontSize=14;" vertex="1" parent="1">
          <mxGeometry x="490" y="720" width="120" height="40" as="geometry" />
        </mxCell>
      </root>
    </mxGraphModel>
  </diagram>
</mxfile>
